<svg xmlns="http://www.w3.org/2000/svg" width="24" height="25" fill="none" viewBox="0 0 24 25">
    <path fill="#000001" d="M8.584 17.306H6.28c-.485 0-.725 0-.87-.09a.57.57 0 0 1-.266-.454c-.009-.17.111-.377.351-.793l5.692-9.89c.244-.42.368-.63.523-.708a.58.58 0 0 1 .531 0c.154.077.274.287.514.707l1.175 2.014.004.01c.193.284.346.594.454.92.065.257.065.536 0 .797q-.162.497-.454.93l-2.991 5.212-.009.017c-.153.311-.35.6-.583.857a1.8 1.8 0 0 1-.707.407c-.244.064-.514.064-1.059.064m5.825 0h3.3c.493 0 .737 0 .883-.094a.57.57 0 0 0 .265-.454c.009-.167-.107-.364-.338-.755l-.026-.042-1.654-2.786-.017-.034c-.232-.386-.352-.583-.502-.66a.57.57 0 0 0-.527 0c-.154.077-.274.283-.514.694l-1.655 2.79v.01c-.244.41-.364.616-.355.783a.58.58 0 0 0 .265.458c.142.09.386.09.875.09"/>
</svg>
