<svg xmlns="http://www.w3.org/2000/svg" width="24" height="25" fill="none" viewBox="0 0 24 25">
    <path fill="#fffffe" d="M12 4.02v6.335l5.357 2.396zm0 0-5.357 8.73L12 10.356zm0 12.836v4.307l5.357-7.414zm0 4.307v-4.307L6.643 13.75z"/>
    <path fill="#fffffe" d="m12 15.858 5.357-3.107L12 10.355zm-5.357-3.107L12 15.858v-5.503z"/>
    <path fill="#fffffe" fill-rule="evenodd" d="m12 15.858-5.357-3.107L12 4.021l5.357 8.73zm-5-3.36 4.916-8.01v5.824zm-.073.218 4.989-2.216v5.11zm5.16-2.216v5.11l4.984-2.894zm0-.188 4.916 2.186-4.916-8.01z" clip-rule="evenodd"/>
    <path fill="#fffffe" fill-rule="evenodd" d="m12 16.788-5.357-3.043L12 21.162l5.357-7.418zM7.243 14.28l4.672 2.658v3.814zm4.843 2.658v3.814l4.671-6.472z" clip-rule="evenodd"/>
</svg>
