<svg xmlns="http://www.w3.org/2000/svg" width="24" height="24" fill="none" viewBox="0 0 24 24">
    <path fill="#fffffe" fill-rule="evenodd" d="M12 19.286a7.286 7.286 0 1 0 0-14.572 7.286 7.286 0 0 0 0 14.572m0-1.643a5.643 5.643 0 1 0 0-11.286 5.643 5.643 0 0 0 0 11.286" clip-rule="evenodd"/>
    <path fill="#fffffe" d="M14.5 16.374a1.234 1.234 0 1 0 0-2.468 1.234 1.234 0 0 0 0 2.468"/>
    <path fill="#fffffe" d="M13.762 4.996c1.187.085 2.59 1.13 3.144 1.643l.706.76c-1.29-.601-2.42-1.272-3.85-1.237s-3.269 1.484-3.127 4.187c.141 2.702 2.226 4.169 3.727 4.663 1.201.396 1.323-.148 1.217-.478.484.942-.157 1.874-1.217 1.962-.848.07-1.955-.548-2.402-.866-1.202-.842-3.477-3.278-2.968-6.288.636-3.763 3.286-4.452 4.77-4.346"/>
    <path fill="#fffffe" d="M6.905 12.108a1.245 1.245 0 1 0 2.189 1.186 1.245 1.245 0 0 0-2.189-1.186"/>
    <path fill="#fffffe" d="M17.284 16.881c-.64 1.004-2.232 1.78-2.946 2.023l-1.004.259c1.142-.848 2.274-1.562 2.925-2.837s.253-3.58-2.191-4.744-4.726-.03-5.876 1.055c-.92.868-.49 1.238-.15 1.302-1.04 0-1.582-1.035-1.155-2.009.342-.779 1.413-1.458 1.906-1.7 1.313-.655 4.539-1.494 6.943.387 3.005 2.352 2.348 5.01 1.548 6.264"/>
    <path fill="#fffffe" d="M14.502 7.612a1.244 1.244 0 1 0-2.133 1.282 1.244 1.244 0 0 0 2.133-1.282"/>
    <path fill="#fffffe" d="M5.116 14.125c-.538-1.062-.428-2.829-.274-3.567l.287-.997c.15 1.415.22 2.755.987 3.963s2.955 2.037 5.199.524 2.427-4.054 2.078-5.596c-.28-1.234-.833-1.04-1.061-.779.544-.945 1.711-.848 2.333.015.497.69.537 1.957.495 2.505-.103 1.463-1.02 4.668-3.862 5.782-3.553 1.393-5.508-.524-6.182-1.85"/>
</svg>
