<svg xmlns="http://www.w3.org/2000/svg" width="24" height="24" fill="none" viewBox="0 0 24 24">
    <path fill="#fffffe" fill-rule="evenodd" d="M12 20a8 8 0 1 1 0-16 8 8 0 0 1 0 16m6.162-10.24c-.272-.685-.776-1.262-1.454-1.687a3.57 3.57 0 0 0-2.536-.453c-.458.089-.901.26-1.29.486a5.4 5.4 0 0 0-1.036.79 8 8 0 0 0-.421.454l-.351.447-.542.72-.122.164c-.657.886-1.384 1.866-2.533 2.169-.934.246-1.456.13-1.987.013-.15-.033-.301-.067-.462-.092a5.7 5.7 0 0 0 1.075 1.808c.473.533 1.064 1.019 1.824 1.338.749.327 1.69.444 2.57.267.881-.17 1.656-.578 2.281-1.05a8 8 0 0 0 1.563-1.585c.118-.156.18-.243.266-.365l.236-.35c.083-.108.162-.225.24-.34q.116-.175.236-.337l.05-.07c.301-.425.602-.85.948-1.241.184-.21.377-.41.606-.603q.17-.143.374-.27c.138-.089.285-.159.465-.213m-9.493-.255-.198.61a.09.09 0 0 1-.173-.001l-.188-.613a.4.4 0 0 0-.259-.263l-.61-.197a.09.09 0 0 1 .001-.173l.613-.188a.4.4 0 0 0 .263-.26l.197-.61a.09.09 0 0 1 .173.002l.189.613a.4.4 0 0 0 .258.263l.61.197c.085.027.084.147 0 .173l-.614.189a.4.4 0 0 0-.262.258m7.39 6.86a.912.912 0 1 1 0-1.824.912.912 0 0 1 0 1.823" clip-rule="evenodd"/>
</svg>
