<svg xmlns="http://www.w3.org/2000/svg" width="24" height="24" fill="none" viewBox="0 0 24 24">
    <path fill="#fffffe" fill-rule="evenodd" d="M17.212 5.321c.867.655 1.349 1.243 1.499 1.83.096.333.01.733-.204 1.032s-.557.466-.953.466q-.225 0-.45-.066a7 7 0 0 0-.214.748 6.7 6.7 0 0 1 1.039 3.6c0 3.629-2.838 6.569-6.34 6.569S5.25 16.56 5.25 12.932s2.838-6.568 6.34-6.568c.774 0 1.516.145 2.203.41a6 6 0 0 0 .463-.266 3 3 0 0 1-.16-.3c-.119-.288-.076-.765.106-1.12.15-.3.386-.5.654-.555.107-.022.214-.033.332-.033.588 0 1.327.3 2.024.821m-3.04 1.612.007-.004h.002q.745-.426 1.403-.976c.214.09.492.244.835.477.407.278.76.588.985.833-.374.509-.62 1.206-.77 1.694a6.4 6.4 0 0 0-2.463-2.024m-.223.296a5.8 5.8 0 0 0-2.36-.499c-3.308 0-5.986 2.774-5.986 6.202s2.678 6.202 5.986 6.202c3.299 0 5.987-2.774 5.987-6.202a6.35 6.35 0 0 0-.768-3.042l-.003.046a6.45 6.45 0 0 0-2.856-2.707m.682-.965-.103.07a1.6 1.6 0 0 1-.144-.247c-.128-.311.022-1.121.536-1.232s1.317.133 2.11.732c.792.6 1.242 1.132 1.38 1.653.127.514-.255 1.276-1.198 1.033l.032-.078c.042.01.096.01.15.01a.6.6 0 0 0 .396-.121.46.46 0 0 0 .171-.41c0-.212-.16-.478-.492-.8a8 8 0 0 0-.879-.72c-.92-.633-1.563-.81-1.852-.511-.193.2-.172.444-.107.621m2.977 1.276c.032.055.043.11.043.144 0 .1-.033.133-.054.155a.37.37 0 0 1-.204.056 3 3 0 0 1 .215-.355m-2.645-1.653c.032-.033.118-.056.257-.033-.107.088-.215.166-.322.244-.01-.078 0-.156.065-.211" clip-rule="evenodd"/>
    <path fill="#fffffe" d="M13.453 10.136c.533 0 .964-.447.964-.998 0-.552-.431-.999-.964-.999s-.963.447-.963.999c0 .551.431.998.963.998m1.574.744a.414.414 0 0 0 .407-.422.413.413 0 0 0-.407-.422.414.414 0 0 0-.407.422c0 .233.182.421.407.421"/>
    <path fill="#fffffe" fill-rule="evenodd" d="m6.002 14.03.035.038c.307.334.741.633 1.272.87 1.062.473 2.55.713 4.31.455 1.314-.195 2.185-.548 2.94-.855.261-.106.509-.206.756-.293.26-.089.515-.156.758-.216l.123-.031c.196-.048.389-.096.556-.149q.253-.074.477-.21c-.362 2.891-2.751 5.129-5.64 5.129-2.756 0-5.066-2.038-5.587-4.738m5.492 3.217c0 .171-.134.31-.3.31a.305.305 0 0 1-.3-.31c0-.172.135-.31.3-.31.166 0 .3.138.3.31m1.264.155c.165 0 .3-.139.3-.31a.304.304 0 0 0-.3-.311c-.166 0-.3.139-.3.31 0 .172.134.311.3.311m-.547.488c0 .129-.1.233-.225.233a.23.23 0 0 1-.225-.233c0-.128.1-.233.225-.233a.23.23 0 0 1 .225.233m1.156.067a.23.23 0 0 0 .225-.233c0-.129-.1-.233-.225-.233a.23.23 0 0 0-.225.233.23.23 0 0 0 .225.233m-2.955-1.02c0 .281-.22.51-.493.51a.5.5 0 0 1-.492-.51c0-.283.22-.511.492-.511s.493.229.493.511m3.909-.745a.5.5 0 0 0 .492-.51.5.5 0 0 0-.492-.51.5.5 0 0 0-.493.51c0 .281.22.51.493.51" clip-rule="evenodd"/>
    <path fill="#fffffe" d="M17.266 12.932c0-.677-1.135-1.065-2.645-1.198-1.092-.089-2.195.022-3.459.421-1.092.333-2.077.278-2.795.189-1.595-.189-2.473-.21-2.473.588 0 1.154 2.27 2.596 5.675 2.097 1.724-.255 2.613-.777 3.63-1.132 1.103-.377 2.067-.366 2.067-.965"/>
</svg>
