<svg xmlns="http://www.w3.org/2000/svg" width="24" height="24" fill="none" viewBox="0 0 24 24">
    <path fill="#004DE5" fill-rule="evenodd" d="M6 5.23v9.872a1.23 1.23 0 0 0 .463.96l4.672 3.735a.93.93 0 0 0 1.159 0l4.671-3.735a1.23 1.23 0 0 0 .464-.96V5.23c0-.327-.13-.64-.362-.87a1.24 1.24 0 0 0-.874-.36H7.236A1.23 1.23 0 0 0 6 5.23" clip-rule="evenodd"/>
    <path fill="url(#ronin__a)" d="M15.046 9.703V7.552a1.08 1.08 0 0 0-.313-.76 1.06 1.06 0 0 0-.754-.316H9.447c-.282 0-.554.114-.754.315a1.08 1.08 0 0 0-.312.76v6.243a1.08 1.08 0 0 0 .4.84l1.65 1.336a.13.13 0 0 0 .142.017.13.13 0 0 0 .075-.122v-4.414c0-.035.014-.07.04-.095a.13.13 0 0 1 .094-.04h1.2c.211 0 .415.086.565.237a.8.8 0 0 1 .234.57v3.742a.14.14 0 0 0 .076.121.13.13 0 0 0 .14-.016l1.65-1.337a1.08 1.08 0 0 0 .4-.839v-1.94a1.08 1.08 0 0 0-.312-.76 1.06 1.06 0 0 0-.754-.315c.283 0 .553-.114.753-.316.2-.201.312-.475.312-.76m-3.066.538h-1.2a.13.13 0 0 1-.094-.04.14.14 0 0 1-.039-.094v-2.42a.135.135 0 0 1 .133-.135h1.866a.133.133 0 0 1 .134.134v1.748a.8.8 0 0 1-.234.57.8.8 0 0 1-.566.237"/>
    <defs>
        <linearGradient id="ronin__a" x1="11.714" x2="11.714" y1="6.476" y2="16" gradientUnits="userSpaceOnUse">
            <stop stop-color="#fff"/>
            <stop offset=".458" stop-color="#fff"/>
            <stop offset="1" stop-color="#fff"/>
        </linearGradient>
    </defs>
</svg>
