<svg xmlns="http://www.w3.org/2000/svg" width="24" height="24" fill="none" viewBox="0 0 24 24">
    <path fill="#000001" d="M10.78 10.241h1.2a.8.8 0 0 0 .566-.236.8.8 0 0 0 .234-.57v-1.75a.133.133 0 0 0-.133-.134H10.78a.135.135 0 0 0-.133.134v2.42a.135.135 0 0 0 .133.135"/>
    <path fill="#000001" fill-rule="evenodd" d="M6 15.102V5.23a1.24 1.24 0 0 1 1.236-1.231h8.957a1.23 1.23 0 0 1 1.236 1.23v9.872a1.23 1.23 0 0 1-.464.96l-4.671 3.735a.93.93 0 0 1-1.159 0l-4.672-3.735a1.23 1.23 0 0 1-.463-.96m9.046-7.55v2.151c0 .285-.112.559-.312.76-.2.202-.47.316-.753.316.283 0 .554.113.754.315s.313.475.313.76v1.94a1.08 1.08 0 0 1-.4.84l-1.65 1.336a.133.133 0 0 1-.217-.105v-3.741a.8.8 0 0 0-.234-.57.8.8 0 0 0-.566-.237h-1.2a.133.133 0 0 0-.133.134v4.414a.14.14 0 0 1-.075.122.13.13 0 0 1-.142-.017l-1.65-1.337a1.07 1.07 0 0 1-.4-.839V7.552c0-.285.112-.559.312-.76.2-.202.472-.316.754-.316h4.532c.283 0 .554.114.754.315.2.202.313.476.313.76" clip-rule="evenodd"/>
</svg>
