<svg xmlns="http://www.w3.org/2000/svg" width="24" height="24" fill="none" viewBox="0 0 24 24">
    <path fill="#fffffe" d="M16.886 8.876a.47.47 0 0 1-.313.124H5.584c-.39 0-.587-.446-.317-.707l1.805-1.74a.46.46 0 0 1 .312-.129h11.032c.394 0 .587.45.313.712zm0 8.576a.47.47 0 0 1-.313.12H5.584c-.39 0-.587-.442-.317-.703l1.805-1.745A.45.45 0 0 1 7.384 15h11.032c.394 0 .587.446.313.707zm0-6.618a.47.47 0 0 0-.313-.12H5.584c-.39 0-.587.442-.317.703l1.805 1.745a.47.47 0 0 0 .312.124h11.032c.394 0 .587-.446.313-.707z"/>
</svg>
