
<svg width="129" height="101" viewBox="0 0 129 101" fill="none" xmlns="http://www.w3.org/2000/svg">
<path fill-rule="evenodd" clip-rule="evenodd" d="M128.117 70.6482C128.132 70.0343 128.139 69.4184 128.139 68.8007C128.139 30.9253 99.4888 0.221191 64.1464 0.221191C28.804 0.221191 0.15332 30.9253 0.15332 68.8007C0.15332 69.4191 0.160958 70.0355 0.176137 70.65C1.08979 33.6287 29.3805 3.91801 64.1464 3.91801C98.9118 3.91801 127.202 33.6277 128.117 70.6482Z" fill="#2DFCFC"/>
<path d="M57.5818 48.5958H62.0359V76.2464C62.0359 81.2597 61.0236 84.5569 58.999 86.1381C56.9937 87.6999 52.7709 88.4809 46.3307 88.4809C40.2954 88.4809 36.1883 87.7288 34.0094 86.2248C31.8498 84.7016 30.77 81.8189 30.77 77.5768V76.2464V48.5958H35.2242V76.2464C35.2242 79.9871 35.8316 82.3395 37.0463 83.3036C38.2611 84.2484 41.2498 84.7208 46.0125 84.7208C51.1801 84.7208 54.4002 84.2581 55.6728 83.3325C56.9455 82.3877 57.5818 80.0257 57.5818 76.2464V48.5958ZM99.5493 48.5958L86.9388 67.6562L100.504 88.0759H95.2397L86.1 74.2507L84.6538 72.0814C84.5767 71.9657 84.355 71.609 83.9886 71.0113L83.2944 69.9122H83.1788L82.4846 71.0402C82.099 71.5994 81.8579 71.9657 81.7615 72.1393L80.2575 74.3374L70.9732 88.0759H65.5067L79.6212 67.6562L66.6347 48.5958H72.0144L80.7781 61.7559L81.9929 63.6069C82.1472 63.8383 82.3496 64.1468 82.6003 64.5325L83.1788 65.458H83.2944L83.8729 64.5614C84.1814 64.0408 84.3742 63.7323 84.4514 63.6359L85.6372 61.8137L94.2852 48.5958H99.5493Z" fill="#2DFCFC"/>
</svg>
