<svg xmlns="http://www.w3.org/2000/svg" width="24" height="24" fill="none" viewBox="0 0 24 24">
    <path fill="#F0B90B" d="M7.792 6.647 12 4.286l4.209 2.361-1.543.874L12 6.03 9.34 7.52zm8.417 2.983-1.543-.874L12 10.247 9.34 8.756l-1.547.874v1.744l2.657 1.492v2.978l1.551.874 1.547-.874v-2.978l2.662-1.492zm0 4.727V12.61l-1.543.874v1.744zm1.101.617-2.661 1.487v1.749l4.208-2.366v-4.723l-1.547.87zM15.763 8.14l1.543.874v1.744l1.551-.87V8.14l-1.547-.875-1.547.879zm-5.314 8.957v1.744l1.551.874 1.547-.874V17.1L12 17.97l-1.547-.874zm-2.657-2.743 1.543.874v-1.744l-1.543-.875v1.75zm2.657-6.214L12 9.013l1.547-.874L12 7.264l-1.547.879zm-3.759.874 1.547-.874-1.543-.875-1.55.879V9.89l1.546.87zm0 2.978-1.547-.87v4.723l4.209 2.366v-1.753L6.694 14.97v-2.983z"/>
</svg>
