<svg xmlns="http://www.w3.org/2000/svg" width="24" height="25" fill="none" viewBox="0 0 24 25">
    <path fill="#000001" d="M7.792 7.24 12 4.877l4.209 2.361-1.543.875L12 6.622 9.34 8.114zm8.417 2.982-1.543-.874L12 10.839 9.34 9.348l-1.547.874v1.745l2.657 1.49v2.98l1.55.873 1.547-.875v-2.978l2.662-1.492zm0 4.727v-1.748l-1.543.874v1.744zm1.101.617-2.661 1.488v1.748l4.208-2.366v-4.722l-1.547.87zm-1.547-6.835 1.543.874v1.744l1.551-.87V8.731l-1.547-.874-1.547.878zm-5.314 8.957v1.744l1.551.875 1.547-.875v-1.74l-1.547.87-1.547-.874zm-2.657-2.743 1.543.874v-1.744l-1.543-.874v1.748zm2.657-6.214L12 9.605l1.547-.874L12 7.857l-1.547.878zm-3.759.874 1.547-.874-1.543-.874-1.55.878v1.749l1.546.87zm0 2.979-1.547-.87v4.722l4.209 2.366V17.05l-2.658-1.487V12.58z"/>
</svg>
