<svg xmlns="http://www.w3.org/2000/svg" width="24" height="24" fill="none" viewBox="0 0 24 24">
    <path fill="#FFEEDA" d="M18.858 14.68V5.402A1.41 1.41 0 0 0 17.448 4h-9.68A3.83 3.83 0 0 0 4 7.835c0 .705.19 1.312.478 1.845.245.44.631.857 1.01 1.17.111.086.056.049.387.251.453.276.974.417.974.417l-.006 5.55c.012.264.037.515.11.754.215.785.76 1.385 1.495 1.673.307.123.656.202 1.03.208l7.732.025a2.79 2.79 0 0 0 2.787-2.794 2.8 2.8 0 0 0-1.14-2.255"/>
    <path fill="#EBC28E" d="M19.05 17.002a1.846 1.846 0 0 1-1.845 1.783l-5.318-.019c.422-.49.68-1.127.68-1.826 0-1.09-.65-1.844-.65-1.844h5.294c1.017 0 1.844.827 1.844 1.844z"/>
    <path fill="#101010" d="M5.997 10.066c-.612-.582-1.041-1.33-1.041-2.224V7.75c.049-1.52 1.299-2.745 2.818-2.788h9.68c.252.012.454.19.454.447v8.192c.22.037.331.067.545.147.172.062.405.196.405.196V5.41a1.41 1.41 0 0 0-1.41-1.403h-9.68A3.83 3.83 0 0 0 4 7.842c0 1.22.558 2.26 1.464 2.99.062.049.123.116.282.116a.46.46 0 0 0 .472-.472c0-.208-.092-.281-.22-.41"/>
    <path fill="#101010" d="M17.207 14.14H9.615a.927.927 0 0 0-.919.926v1.09a.97.97 0 0 0 .956.931h.564v-.93h-.57V15.09h.306c.962 0 1.667.889 1.667 1.844 0 .846-.772 1.924-2.059 1.838-1.14-.073-1.758-1.09-1.758-1.838V7.683a.764.764 0 0 0-.76-.76h-.76v.95h.564v9.067c-.03 1.845 1.311 2.77 2.714 2.77l7.653.024A2.79 2.79 0 0 0 20 16.94a2.794 2.794 0 0 0-2.793-2.8m1.844 2.862a1.846 1.846 0 0 1-1.844 1.783l-5.319-.019c.423-.49.68-1.127.68-1.826 0-1.09-.649-1.844-.649-1.844h5.294c1.017 0 1.844.827 1.844 1.844zm-3.893-8.958H9.436v-.95h5.722c.257 0 .472.209.472.472a.466.466 0 0 1-.472.478"/>
    <path fill="#101010" d="M15.158 12.498H9.436v-.944h5.722c.257 0 .472.208.472.472a.464.464 0 0 1-.472.472m1.012-2.23H9.435v-.95h6.727c.257 0 .472.209.472.472a.46.46 0 0 1-.466.478"/>
</svg>
