<svg xmlns="http://www.w3.org/2000/svg" width="24" height="24" fill="none" viewBox="0 0 24 24">
    <path fill="#000001" d="M5.998 10.07C5.377 9.488 4.95 8.732 4.95 7.84v-.097c.058-1.513 1.3-2.754 2.812-2.793h9.678c.252.02.446.194.446.446V13.6c.213.038.33.077.543.135.174.059.407.194.407.194V5.396A1.42 1.42 0 0 0 17.42 4H7.762A3.833 3.833 0 0 0 4 7.84c0 1.221.562 2.269 1.455 2.986.058.058.116.117.29.117.291 0 .485-.233.466-.466 0-.213-.078-.29-.213-.407"/>
    <path fill="#000001" d="M17.188 14.143H9.605a.915.915 0 0 0-.911.93v1.087c.019.504.446.93.95.93h.562v-.93h-.562v-1.067h.31c.95 0 1.668.892 1.668 1.842 0 .854-.776 1.92-2.056 1.843-1.144-.078-1.765-1.086-1.765-1.843v-9.25a.77.77 0 0 0-.756-.757H6.29v.95h.562v9.077c-.039 1.842 1.319 2.773 2.715 2.773l7.641.02A2.793 2.793 0 0 0 20 16.954c-.02-1.571-1.26-2.812-2.812-2.812m1.842 2.85a1.856 1.856 0 0 1-1.842 1.785l-5.314-.02a2.75 2.75 0 0 0 .679-1.823c0-1.086-.64-1.842-.64-1.842h5.294c1.009 0 1.843.834 1.843 1.842zm-3.88-8.958H9.43v-.95h5.72c.253 0 .466.213.466.465 0 .271-.194.485-.465.485"/>
    <path fill="#000001" d="M15.15 12.494H9.43v-.95h5.72c.253 0 .466.213.466.465 0 .272-.194.485-.465.485m1.009-2.23H9.43v-.95h6.73c.251 0 .465.213.465.465a.476.476 0 0 1-.466.485"/>
</svg>
