<svg xmlns="http://www.w3.org/2000/svg" width="24" height="24" fill="none" viewBox="0 0 24 24">
    <path fill="#000" fill-opacity=".5" d="M18.468 14.602v5.192h1.416a.346.346 0 0 0 .346-.346v-4.5a.346.346 0 0 0-.346-.346zm0-10.396v5.192h1.416a.346.346 0 0 0 .346-.346v-4.5a.346.346 0 0 0-.346-.346z"/>
    <path fill="#000" fill-opacity=".3" d="M21.121 4.206v5.192h.53a.346.346 0 0 0 .346-.346v-4.5a.346.346 0 0 0-.346-.346zm.003 10.396v5.192h.53a.346.346 0 0 0 .346-.346v-4.5a.346.346 0 0 0-.346-.346z"/>
    <path fill="#000" d="M12.03 9.41H7.55a.343.343 0 0 0-.344.342V14.2c0 .188.154.342.345.342h4.478c.19 0 .345-.154.345-.342V9.752a.343.343 0 0 0-.345-.342M6.846 4.206h-4.5A.346.346 0 0 0 2 4.552v4.5c0 .191.155.346.346.346h4.5a.346.346 0 0 0 .346-.346v-4.5a.346.346 0 0 0-.346-.346m10.382 0h-4.5a.346.346 0 0 0-.346.346v4.5c0 .191.155.346.346.346h4.5a.346.346 0 0 0 .346-.346v-4.5a.346.346 0 0 0-.346-.346M6.846 14.59h-4.5a.346.346 0 0 0-.346.346v4.5c0 .191.155.346.346.346h4.5a.346.346 0 0 0 .346-.346v-4.5a.346.346 0 0 0-.346-.346m10.382 0h-4.5a.346.346 0 0 0-.346.346v4.5c0 .191.155.346.346.346h4.5a.346.346 0 0 0 .346-.346v-4.5a.346.346 0 0 0-.346-.346"/>
</svg>
